<svg width="30" height="17" viewBox="0 0 30 17" fill="none" xmlns="http://www.w3.org/2000/svg">
<path id="Vector" d="M8.63636 16V14.75C8.63636 13.0924 9.30682 11.5027 10.5002 10.3306C11.6936 9.15848 13.3123 8.5 15 8.5M15 8.5C16.6877 8.5 18.3064 9.15848 19.4998 10.3306C20.6932 11.5027 21.3636 13.0924 21.3636 14.75V16M15 8.5C16.0126 8.5 16.9838 8.10491 17.6999 7.40165C18.4159 6.69839 18.8182 5.74456 18.8182 4.75C18.8182 3.75544 18.4159 2.80161 17.6999 2.09835C16.9838 1.39509 16.0126 1 15 1C13.9874 1 13.0162 1.39509 12.3001 2.09835C11.5841 2.80161 11.1818 3.75544 11.1818 4.75C11.1818 5.74456 11.5841 6.69839 12.3001 7.40165C13.0162 8.10491 13.9874 8.5 15 8.5ZM1 16V14.75C1 13.7554 1.40227 12.8016 2.11832 12.0983C2.83437 11.3951 3.80554 11 4.81818 11M4.81818 11C5.49328 11 6.14072 10.7366 6.61809 10.2678C7.09546 9.79893 7.36364 9.16304 7.36364 8.5C7.36364 7.83696 7.09546 7.20107 6.61809 6.73223C6.14072 6.26339 5.49328 6 4.81818 6C4.14309 6 3.49564 6.26339 3.01827 6.73223C2.54091 7.20107 2.27273 7.83696 2.27273 8.5C2.27273 9.16304 2.54091 9.79893 3.01827 10.2678C3.49564 10.7366 4.14309 11 4.81818 11ZM29 16V14.75C29 13.7554 28.5977 12.8016 27.8817 12.0983C27.1656 11.3951 26.1945 11 25.1818 11M25.1818 11C25.8569 11 26.5044 10.7366 26.9817 10.2678C27.4591 9.79893 27.7273 9.16304 27.7273 8.5C27.7273 7.83696 27.4591 7.20107 26.9817 6.73223C26.5044 6.26339 25.8569 6 25.1818 6C24.5067 6 23.8593 6.26339 23.3819 6.73223C22.9045 7.20107 22.6364 7.83696 22.6364 8.5C22.6364 9.16304 22.9045 9.79893 23.3819 10.2678C23.8593 10.7366 24.5067 11 25.1818 11Z" stroke="#F8F8F8" stroke-width="1.5" stroke-linecap="round" stroke-linejoin="round"/>
</svg>
