<svg width="35" height="35" viewBox="0 0 35 35" fill="none" xmlns="http://www.w3.org/2000/svg">
<g id="Group">
<path id="Vector" d="M29.1667 26.25C29.5384 26.2504 29.8959 26.3927 30.1662 26.6479C30.4364 26.9031 30.5991 27.2518 30.6209 27.6229C30.6427 27.9939 30.5219 28.3593 30.2834 28.6443C30.0448 28.9294 29.7064 29.1126 29.3373 29.1565L29.1667 29.1667H5.83333C5.46163 29.1663 5.10412 29.0239 4.83384 28.7688C4.56356 28.5136 4.40091 28.1649 4.37912 27.7938C4.35734 27.4227 4.47807 27.0574 4.71664 26.7723C4.95521 26.4873 5.29361 26.3041 5.66271 26.2602L5.83333 26.25H29.1667ZM29.1667 16.0417C29.5534 16.0417 29.9244 16.1953 30.1979 16.4688C30.4714 16.7423 30.625 17.1132 30.625 17.5C30.625 17.8868 30.4714 18.2577 30.1979 18.5312C29.9244 18.8047 29.5534 18.9583 29.1667 18.9583H5.83333C5.44656 18.9583 5.07563 18.8047 4.80214 18.5312C4.52865 18.2577 4.375 17.8868 4.375 17.5C4.375 17.1132 4.52865 16.7423 4.80214 16.4688C5.07563 16.1953 5.44656 16.0417 5.83333 16.0417H29.1667ZM29.1667 5.83333C29.5534 5.83333 29.9244 5.98697 30.1979 6.26046C30.4714 6.53396 30.625 6.90489 30.625 7.29166C30.625 7.67844 30.4714 8.04937 30.1979 8.32286C29.9244 8.59635 29.5534 8.74999 29.1667 8.74999H5.83333C5.44656 8.74999 5.07563 8.59635 4.80214 8.32286C4.52865 8.04937 4.375 7.67844 4.375 7.29166C4.375 6.90489 4.52865 6.53396 4.80214 6.26046C5.07563 5.98697 5.44656 5.83333 5.83333 5.83333H29.1667Z" fill="#F8F8F8"/>
</g>
</svg>
