<svg width="19" height="20" viewBox="0 0 19 20" fill="none" xmlns="http://www.w3.org/2000/svg">
<path id="Vector" d="M18.5792 0.458161C18.4458 0.317531 18.2875 0.20596 18.1131 0.129836C17.9388 0.0537112 17.7519 0.0145271 17.5632 0.0145271C17.3744 0.0145271 17.1875 0.0537112 17.0132 0.129836C16.8388 0.20596 16.6805 0.317531 16.5472 0.458161L9.5 7.86105L2.45284 0.442991C2.31942 0.302545 2.16102 0.191138 1.9867 0.115129C1.81237 0.0391207 1.62553 1.47983e-09 1.43684 0C1.24815 -1.47983e-09 1.06131 0.0391207 0.886986 0.115129C0.712661 0.191138 0.554264 0.302545 0.420841 0.442991C0.287418 0.583436 0.181581 0.750169 0.109373 0.93367C0.0371646 1.11717 -1.40584e-09 1.31385 0 1.51247C1.40584e-09 1.71109 0.0371646 1.90776 0.109373 2.09126C0.181581 2.27476 0.287418 2.4415 0.420841 2.58194L7.468 10L0.420841 17.4181C0.287418 17.5585 0.181581 17.7252 0.109373 17.9087C0.0371646 18.0922 0 18.2889 0 18.4875C0 18.6862 0.0371646 18.8828 0.109373 19.0663C0.181581 19.2498 0.287418 19.4166 0.420841 19.557C0.554264 19.6975 0.712661 19.8089 0.886986 19.8849C1.06131 19.9609 1.24815 20 1.43684 20C1.62553 20 1.81237 19.9609 1.9867 19.8849C2.16102 19.8089 2.31942 19.6975 2.45284 19.557L9.5 12.1389L16.5472 19.557C16.6806 19.6975 16.839 19.8089 17.0133 19.8849C17.1876 19.9609 17.3745 20 17.5632 20C17.7518 20 17.9387 19.9609 18.113 19.8849C18.2873 19.8089 18.4457 19.6975 18.5792 19.557C18.7126 19.4166 18.8184 19.2498 18.8906 19.0663C18.9628 18.8828 19 18.6862 19 18.4875C19 18.2889 18.9628 18.0922 18.8906 17.9087C18.8184 17.7252 18.7126 17.5585 18.5792 17.4181L11.532 10L18.5792 2.58194C19.1268 2.00549 19.1268 1.03462 18.5792 0.458161Z" fill="#F8F8F8"/>
</svg>
