<svg width="27" height="23" viewBox="0 0 27 23" fill="none" xmlns="http://www.w3.org/2000/svg">
<path id="Vector" d="M15.4286 0C12.3596 0 9.4164 1.2116 7.24634 3.36827C5.07627 5.52494 3.85714 8.45001 3.85714 11.5H0L5.00143 16.4705L5.09143 16.6494L10.2857 11.5H6.42857C6.42857 6.555 10.4529 2.55555 15.4286 2.55555C20.4043 2.55555 24.4286 6.555 24.4286 11.5C24.4286 16.445 20.4043 20.4444 15.4286 20.4444C12.9471 20.4444 10.6971 19.435 9.07714 17.8122L7.25143 19.6267C8.32296 20.6975 9.5972 21.5468 11.0007 22.1258C12.4041 22.7048 13.909 23.0019 15.4286 23C18.4975 23 21.4407 21.7884 23.6108 19.6317C25.7809 17.475 27 14.55 27 11.5C27 8.45001 25.7809 5.52494 23.6108 3.36827C21.4407 1.2116 18.4975 4.54484e-08 15.4286 0ZM14.1429 6.38889V12.7778L19.6457 16.0233L20.5714 14.4772L16.0714 11.8194V6.38889H14.1429Z" fill="#F8F8F8"/>
</svg>
