<svg width="26" height="24" viewBox="0 0 26 24" fill="none" xmlns="http://www.w3.org/2000/svg">
<path id="Vector" d="M4.7528 23.6768C4.56615 23.8413 4.33706 23.9483 4.09244 23.9855C3.84783 24.0226 3.59783 23.9883 3.37179 23.8865C3.14576 23.7847 2.95308 23.6198 2.81637 23.4109C2.67967 23.2021 2.6046 22.9581 2.6 22.7076V19.7537C1.91044 19.7537 1.24912 19.4763 0.761522 18.9823C0.273928 18.4884 0 17.8185 0 17.1199V7.9015C0 7.20296 0.273928 6.53304 0.761522 6.0391C1.24912 5.54516 1.91044 5.26767 2.6 5.26767H16.9C17.5896 5.26767 18.2509 5.54516 18.7385 6.0391C19.2261 6.53304 19.5 7.20296 19.5 7.9015V17.1199C19.5 17.8185 19.2261 18.4884 18.7385 18.9823C18.2509 19.4763 17.5896 19.7537 16.9 19.7537H10.4039L4.7528 23.6768ZM5.85 19.6036C5.96846 19.6029 6.08479 19.5717 6.188 19.5128L9.2495 17.3556C9.46738 17.2022 9.72641 17.1199 9.9918 17.1199H15.6C15.9448 17.1199 16.2754 16.9812 16.5192 16.7342C16.763 16.4872 16.9 16.1523 16.9 15.803V9.21842C16.9 8.86915 16.763 8.53418 16.5192 8.28722C16.2754 8.04025 15.9448 7.9015 15.6 7.9015H3.9C3.55522 7.9015 3.22456 8.04025 2.98076 8.28722C2.73696 8.53418 2.6 8.86915 2.6 9.21842V15.803C2.6 16.5141 3.1577 17.0962 3.9 17.1199C4.433 17.141 4.8191 17.2292 4.9972 17.4175C5.1636 17.594 5.1727 17.8916 5.2 18.4579C5.2039 18.5409 5.2039 18.691 5.2 18.9452C5.2 19.1198 5.26848 19.2873 5.39038 19.4108C5.51228 19.5342 5.67761 19.6036 5.85 19.6036ZM20.8 13.1902C20.7958 13.3526 20.7958 13.5151 20.8 13.6775V13.1902C20.826 12.624 20.8364 12.3263 21.0028 12.1499C21.1809 11.9616 21.567 11.8733 22.1 11.8522C22.8423 11.8285 23.4 11.2465 23.4 10.5353V3.95075C23.4 3.60148 23.263 3.26652 23.0192 3.01955C22.7754 2.77258 22.4448 2.63383 22.1 2.63383H10.4C10.0552 2.63383 9.72456 2.77258 9.48076 3.01955C9.23696 3.26652 9.1 3.60148 9.1 3.95075H6.5V2.63383C6.5 1.9353 6.77393 1.26537 7.26152 0.771432C7.74912 0.277492 8.41044 0 9.1 0L23.4 0C24.0896 0 24.7509 0.277492 25.2385 0.771432C25.7261 1.26537 26 1.9353 26 2.63383V11.8522C26 12.5508 25.7261 13.2207 25.2385 13.7146C24.7509 14.2086 24.0896 14.4861 23.4 14.4861V17.4399C23.3954 17.6905 23.3203 17.9344 23.1836 18.1433C23.0469 18.3521 22.8542 18.5171 22.6282 18.6188C22.4022 18.7206 22.1522 18.7549 21.9076 18.7178C21.6629 18.6807 21.4339 18.5736 21.2472 18.4092L20.8 18.0984V13.1916V13.1902Z" fill="#F8F8F8"/>
</svg>
