<svg width="28" height="35" viewBox="0 0 28 35" fill="none" xmlns="http://www.w3.org/2000/svg">
<g id="Group">
<path id="Vector" d="M5 28.35V14.4C5 11.9335 5.94821 9.568 7.63604 7.82391C9.32387 6.07982 11.6131 5.10001 14 5.10001C16.3869 5.10001 18.6761 6.07982 20.364 7.82391C22.0518 9.568 23 11.9335 23 14.4V28.35M5 28.35H23M5 28.35H2M23 28.35H26M12.5 33H15.5" stroke="#F8F8F8" stroke-width="2.5" stroke-linecap="round" stroke-linejoin="round"/>
<path id="Vector_2" d="M14 5.1C14.8284 5.1 15.5 4.40604 15.5 3.55C15.5 2.69396 14.8284 2 14 2C13.1716 2 12.5 2.69396 12.5 3.55C12.5 4.40604 13.1716 5.1 14 5.1Z" stroke="#F8F8F8" stroke-width="2.5"/>
</g>
</svg>
