<svg width="19" height="21" viewBox="0 0 19 21" fill="none" xmlns="http://www.w3.org/2000/svg">
<path id="Vector" d="M9.5 10.0377C8.68571 10.0377 8.14286 10.566 8.14286 11.3585C8.14286 11.8868 8.55 12.283 8.95714 12.4151L8.55 14.2642H10.3143L9.90714 12.4151C10.45 12.283 10.7214 11.8868 10.7214 11.3585C10.8571 10.566 10.3143 10.0377 9.5 10.0377ZM9.63571 4.35849C8.68571 4.35849 7.73571 5.01887 7.73571 5.9434V7.92453H11.4V5.9434C11.2643 5.01887 10.5857 4.35849 9.63571 4.35849ZM9.5 0L0 3.96226V7.92453C0.135714 13.7358 3.93571 18.8868 9.5 21C15.0643 18.8868 18.8643 13.7358 19 7.92453V3.96226L9.5 0ZM14.9286 14.5283C14.9286 15.3208 14.3857 15.8491 13.5714 15.8491H5.42857C4.61429 15.8491 4.07143 15.3208 4.07143 14.5283V9.24528C4.07143 8.45283 4.61429 7.92453 5.42857 7.92453H5.83571V5.9434C5.97143 4.09434 7.6 2.64151 9.5 2.64151C11.4 2.64151 13.0286 4.09434 13.1643 5.9434V7.92453H13.5714C14.3857 7.92453 14.9286 8.45283 14.9286 9.24528V14.5283Z" fill="#F8F8F8"/>
</svg>
