<svg width="24" height="23" viewBox="0 0 24 23" fill="none" xmlns="http://www.w3.org/2000/svg">
<path id="Vector" fill-rule="evenodd" clip-rule="evenodd" d="M6.66667 5.11111C6.66667 3.75556 7.22857 2.45553 8.22876 1.49701C9.22896 0.53849 10.5855 0 12 0C13.4145 0 14.771 0.53849 15.7712 1.49701C16.7714 2.45553 17.3333 3.75556 17.3333 5.11111C17.3333 6.46666 16.7714 7.76669 15.7712 8.72521C14.771 9.68373 13.4145 10.2222 12 10.2222C10.5855 10.2222 9.22896 9.68373 8.22876 8.72521C7.22857 7.76669 6.66667 6.46666 6.66667 5.11111ZM6.66667 12.7778C4.89856 12.7778 3.20286 13.4509 1.95262 14.649C0.702379 15.8472 0 17.4722 0 19.1667C0 20.1833 0.421427 21.1584 1.17157 21.8772C1.92172 22.5961 2.93913 23 4 23H20C21.0609 23 22.0783 22.5961 22.8284 21.8772C23.5786 21.1584 24 20.1833 24 19.1667C24 17.4722 23.2976 15.8472 22.0474 14.649C20.7971 13.4509 19.1014 12.7778 17.3333 12.7778H6.66667Z" fill="#F8F8F8"/>
</svg>
