<svg width="33" height="33" viewBox="0 0 33 33" fill="none" xmlns="http://www.w3.org/2000/svg">
<path id="Vector" d="M31 31L21.3333 21.3333M2 13.2778C2 14.7588 2.29171 16.2253 2.85847 17.5936C3.42523 18.9619 4.25595 20.2051 5.30318 21.2524C6.35042 22.2996 7.59368 23.1303 8.96196 23.6971C10.3302 24.2638 11.7968 24.5556 13.2778 24.5556C14.7588 24.5556 16.2253 24.2638 17.5936 23.6971C18.9619 23.1303 20.2051 22.2996 21.2524 21.2524C22.2996 20.2051 23.1303 18.9619 23.6971 17.5936C24.2638 16.2253 24.5556 14.7588 24.5556 13.2778C24.5556 11.7968 24.2638 10.3302 23.6971 8.96196C23.1303 7.59368 22.2996 6.35042 21.2524 5.30318C20.2051 4.25595 18.9619 3.42523 17.5936 2.85847C16.2253 2.29171 14.7588 2 13.2778 2C11.7968 2 10.3302 2.29171 8.96196 2.85847C7.59368 3.42523 6.35042 4.25595 5.30318 5.30318C4.25595 6.35042 3.42523 7.59368 2.85847 8.96196C2.29171 10.3302 2 11.7968 2 13.2778Z" stroke="white" stroke-width="3" stroke-linecap="round" stroke-linejoin="round"/>
</svg>
