<svg width="24" height="25" viewBox="0 0 24 25" fill="none" xmlns="http://www.w3.org/2000/svg">
<path id="Vector" d="M21.1751 13.724C21.2265 13.3333 21.2522 12.9297 21.2522 12.5C21.2522 12.0833 21.2265 11.6667 21.1622 11.276L23.7708 9.21875C23.8832 9.12487 23.96 8.9944 23.9882 8.84957C24.0163 8.70474 23.994 8.55451 23.925 8.42448L21.4578 4.10157C21.3851 3.97079 21.2692 3.87028 21.1304 3.81785C20.9916 3.76542 20.839 3.76445 20.6996 3.81511L17.6284 5.06511C16.9859 4.57032 16.3048 4.15365 15.5467 3.84115L15.0841 0.533858C15.0613 0.384808 14.9865 0.248971 14.8734 0.151014C14.7602 0.0530574 14.6161 -0.000522793 14.4672 3.84557e-06H9.53275C9.22435 3.84557e-06 8.98019 0.221358 8.92879 0.533858L8.46618 3.84115C7.70802 4.15365 7.0141 4.58334 6.38444 5.06511L3.31323 3.81511C3.03053 3.71094 2.70927 3.81511 2.55507 4.10157L0.100673 8.42448C-0.0535302 8.69792 -0.00212937 9.03646 0.254876 9.21875L2.86348 11.276C2.79922 11.6667 2.74782 12.0964 2.74782 12.5C2.74782 12.9036 2.77352 13.3333 2.83777 13.724L0.229175 15.7813C0.116766 15.8751 0.0399599 16.0056 0.0118421 16.1504C-0.0162757 16.2953 0.00603483 16.4455 0.0749723 16.5755L2.54222 20.8984C2.69642 21.1849 3.01768 21.276 3.30038 21.1849L6.37159 19.9349C7.0141 20.4297 7.69517 20.8464 8.45333 21.1589L8.91594 24.4661C8.98019 24.7786 9.22435 25 9.53275 25H14.4672C14.7757 25 15.0327 24.7786 15.0712 24.4661L15.5338 21.1589C16.292 20.8464 16.9859 20.4297 17.6156 19.9349L20.6868 21.1849C20.9695 21.2891 21.2907 21.1849 21.4449 20.8984L23.9122 16.5755C24.0664 16.2891 24.0021 15.9635 23.758 15.7813L21.1751 13.724ZM12 17.1875C9.45565 17.1875 7.37391 15.0781 7.37391 12.5C7.37391 9.92188 9.45565 7.8125 12 7.8125C14.5443 7.8125 16.6261 9.92188 16.6261 12.5C16.6261 15.0781 14.5443 17.1875 12 17.1875Z" fill="#F8F8F8"/>
</svg>
