<svg width="26" height="25" viewBox="0 0 26 25" fill="none" xmlns="http://www.w3.org/2000/svg">
<path id="Vector" d="M13 0C5.8318 0 0 5.6075 0 12.5V17.6787C0 18.9587 1.1661 20 2.6 20H3.9C4.24478 20 4.57544 19.8683 4.81924 19.6339C5.06304 19.3995 5.2 19.0815 5.2 18.75V12.3213C5.2 11.9897 5.06304 11.6718 4.81924 11.4374C4.57544 11.2029 4.24478 11.0713 3.9 11.0713H2.7196C3.4424 6.23375 7.7714 2.5 13 2.5C18.2286 2.5 22.5576 6.23375 23.2804 11.0713H22.1C21.7552 11.0713 21.4246 11.2029 21.1808 11.4374C20.937 11.6718 20.8 11.9897 20.8 12.3213V20C20.8 21.3787 19.6339 22.5 18.2 22.5H15.6V21.25H10.4V25H18.2C21.0678 25 23.4 22.7575 23.4 20C24.8339 20 26 18.9587 26 17.6787V12.5C26 5.6075 20.1682 0 13 0Z" fill="#F8F8F8"/>
</svg>
