<svg width="28" height="31" viewBox="0 0 28 31" fill="none" xmlns="http://www.w3.org/2000/svg">
<path id="Vector" d="M0 4.19792C0 3.08456 0.435612 2.0168 1.21101 1.22954C1.9864 0.442279 3.03806 0 4.13463 0H21.3093C22.4058 0 23.4575 0.442279 24.2329 1.22954C25.0083 2.0168 25.4439 3.08456 25.4439 4.19792V19.8645C25.2912 19.9679 25.1449 20.0893 25.0101 20.2262L23.5356 21.7232V4.19792C23.5356 3.59842 23.301 3.02347 22.8835 2.59956C22.466 2.17565 21.8997 1.9375 21.3093 1.9375H4.13463C3.54417 1.9375 2.97789 2.17565 2.56037 2.59956C2.14285 3.02347 1.90829 3.59842 1.90829 4.19792V26.8021C1.90829 28.0498 2.90569 29.0625 4.13463 29.0625H14.3987L16.307 31H4.13463C3.03806 31 1.9864 30.5577 1.21101 29.7705C0.435612 28.9832 0 27.9154 0 26.8021V4.19792ZM8.26926 8.71875C8.26926 9.14696 8.10172 9.55764 7.80349 9.86043C7.50526 10.1632 7.10078 10.3333 6.67902 10.3333C6.25726 10.3333 5.85278 10.1632 5.55455 9.86043C5.25632 9.55764 5.08878 9.14696 5.08878 8.71875C5.08878 8.29054 5.25632 7.87986 5.55455 7.57707C5.85278 7.27427 6.25726 7.10417 6.67902 7.10417C7.10078 7.10417 7.50526 7.27427 7.80349 7.57707C8.10172 7.87986 8.26926 8.29054 8.26926 8.71875ZM6.67902 17.1146C7.10078 17.1146 7.50526 16.9445 7.80349 16.6417C8.10172 16.3389 8.26926 15.9282 8.26926 15.5C8.26926 15.0718 8.10172 14.6611 7.80349 14.3583C7.50526 14.0555 7.10078 13.8854 6.67902 13.8854C6.25726 13.8854 5.85278 14.0555 5.55455 14.3583C5.25632 14.6611 5.08878 15.0718 5.08878 15.5C5.08878 15.9282 5.25632 16.3389 5.55455 16.6417C5.85278 16.9445 6.25726 17.1146 6.67902 17.1146ZM6.67902 23.8958C7.10078 23.8958 7.50526 23.7257 7.80349 23.4229C8.10172 23.1201 8.26926 22.7095 8.26926 22.2812C8.26926 21.853 8.10172 21.4424 7.80349 21.1396C7.50526 20.8368 7.10078 20.6667 6.67902 20.6667C6.25726 20.6667 5.85278 20.8368 5.55455 21.1396C5.25632 21.4424 5.08878 21.853 5.08878 22.2812C5.08878 22.7095 5.25632 23.1201 5.55455 23.4229C5.85278 23.7257 6.25726 23.8958 6.67902 23.8958ZM11.1317 7.75C10.8786 7.75 10.636 7.85206 10.457 8.03374C10.2781 8.21542 10.1776 8.46182 10.1776 8.71875C10.1776 8.97568 10.2781 9.22208 10.457 9.40376C10.636 9.58543 10.8786 9.6875 11.1317 9.6875H19.401C19.654 9.6875 19.8967 9.58543 20.0756 9.40376C20.2546 9.22208 20.3551 8.97568 20.3551 8.71875C20.3551 8.46182 20.2546 8.21542 20.0756 8.03374C19.8967 7.85206 19.654 7.75 19.401 7.75H11.1317ZM10.1776 15.5C10.1776 15.2431 10.2781 14.9967 10.457 14.815C10.636 14.6333 10.8786 14.5312 11.1317 14.5312H19.401C19.654 14.5312 19.8967 14.6333 20.0756 14.815C20.2546 14.9967 20.3551 15.2431 20.3551 15.5C20.3551 15.7569 20.2546 16.0033 20.0756 16.185C19.8967 16.3667 19.654 16.4688 19.401 16.4688H11.1317C10.8786 16.4688 10.636 16.3667 10.457 16.185C10.2781 16.0033 10.1776 15.7569 10.1776 15.5ZM11.1317 21.3125C10.8786 21.3125 10.636 21.4146 10.457 21.5962C10.2781 21.7779 10.1776 22.0243 10.1776 22.2812C10.1776 22.5382 10.2781 22.7846 10.457 22.9663C10.636 23.1479 10.8786 23.25 11.1317 23.25H19.401C19.654 23.25 19.8967 23.1479 20.0756 22.9663C20.2546 22.7846 20.3551 22.5382 20.3551 22.2812C20.3551 22.0243 20.2546 21.7779 20.0756 21.5962C19.8967 21.4146 19.654 21.3125 19.401 21.3125H11.1317ZM27.7084 22.9658L20.0752 30.7158C19.8963 30.8972 19.6538 30.9991 19.401 30.9991C19.1481 30.9991 18.9056 30.8972 18.7267 30.7158L14.9127 26.8434C14.7441 26.6598 14.6524 26.4169 14.6567 26.1659C14.6611 25.9149 14.7612 25.6755 14.936 25.498C15.1109 25.3205 15.3467 25.2188 15.5939 25.2144C15.8411 25.21 16.0803 25.3031 16.2612 25.4742L19.401 28.6608L26.3599 21.5954C26.4479 21.5029 26.5532 21.4291 26.6697 21.3784C26.7861 21.3277 26.9113 21.301 27.038 21.3C27.1647 21.2989 27.2903 21.3235 27.4076 21.3723C27.5248 21.421 27.6313 21.493 27.7209 21.584C27.8104 21.675 27.8812 21.7832 27.9291 21.9023C27.977 22.0214 28.0011 22.149 28 22.2776C27.9988 22.4062 27.9724 22.5333 27.9224 22.6515C27.8723 22.7696 27.7996 22.8765 27.7084 22.9658Z" fill="#F8F8F8"/>
</svg>
