<svg width="32" height="35" viewBox="0 0 32 35" fill="none" xmlns="http://www.w3.org/2000/svg">
<path id="Vector" d="M26.6667 24.739C25.3156 24.739 24.1067 25.2661 23.1822 26.0919L10.5067 18.8002C10.5956 18.3961 10.6667 17.992 10.6667 17.5703C10.6667 17.1486 10.5956 16.7445 10.5067 16.3404L23.04 9.11898C24 9.99749 25.2622 10.5422 26.6667 10.5422C29.6178 10.5422 32 8.18775 32 5.27108C32 2.35442 29.6178 0 26.6667 0C23.7156 0 21.3333 2.35442 21.3333 5.27108C21.3333 5.69277 21.4044 6.09689 21.4933 6.501L8.96 13.7224C8 12.8439 6.73778 12.2992 5.33333 12.2992C2.38222 12.2992 0 14.6536 0 17.5703C0 20.4869 2.38222 22.8414 5.33333 22.8414C6.73778 22.8414 8 22.2967 8.96 21.4182L21.6178 28.7274C21.5289 29.0964 21.4756 29.4829 21.4756 29.8695C21.4756 32.6983 23.8044 35 26.6667 35C29.5289 35 31.8578 32.6983 31.8578 29.8695C31.8578 27.0407 29.5289 24.739 26.6667 24.739Z" fill="#282525"/>
</svg>
